<svg width="218" height="88" viewBox="0 0 218 88" fill="none" xmlns="http://www.w3.org/2000/svg">
<path fill-rule="evenodd" clip-rule="evenodd" d="M0.515351 58.9136C1.81095 53.8231 5.27485 49.9647 9.97753 48.3744C11.5004 47.8594 12.643 47.7389 15.1324 47.8318C17.8829 47.934 18.6366 48.1012 20.5111 49.023C23.3679 50.4282 25.0306 51.8805 26.5672 54.3134C26.7316 54.5737 26.8877 54.8372 27.0356 55.1037V64.229V69.7915C26.3797 70.9149 25.5566 71.9784 24.563 72.9538C24.3423 73.1704 24.1666 73.3581 24.0122 73.5231C23.5526 74.0141 23.2812 74.3041 22.5715 74.5568C20.4211 75.3224 19.3023 72.4019 18.5101 70.3338C18.3124 69.8176 18.135 69.3546 17.967 69.0152C16.8193 66.6968 16.8798 65.141 18.1687 63.8218C19.0326 62.9375 19.3745 62.8037 20.3544 62.9664C21.4204 63.1436 21.4877 63.1048 21.1693 62.4964C20.9787 62.1317 20.4059 61.6125 19.8962 61.3431C19.3866 61.0734 18.7576 60.4472 18.4984 59.9514C18.2393 59.4556 17.5165 58.7272 16.8922 58.3322C15.3724 57.3708 12.8014 57.5793 11.5434 58.766C9.87164 60.3439 9.74894 61.1367 9.74894 70.3557C9.74894 80.1775 9.55732 81.2046 7.2791 83.5989C5.76566 85.1896 4.13187 86.1096 1.61126 86.7902L0 87.2251V74.082C0 63.3834 0.0958102 60.5617 0.515351 58.9136ZM14.5683 62.4483C13.8028 62.5601 13.1967 61.4866 13.625 60.7775C13.7467 60.5755 14.1726 60.4582 14.571 60.5163C15.5973 60.666 15.5949 62.2986 14.5683 62.4483Z" fill="#151515"/>
<rect x="26.0342" y="39.7926" width="15.6303" height="13.7379" fill="#151515"/>
<rect x="26.0342" y="13.7582" width="19.0495" height="16.1272" fill="#151515"/>
<path d="M0 65.8268L0 13.7582H27.0356L27.0356 61.9366L12.9426 54.1114L0 65.8268Z" fill="#151515"/>
<path d="M51.5781 54V14H62.4375V45.25H78.6094V54H51.5781ZM93.8584 14V54H82.999V14H93.8584ZM124.981 27.2031C124.812 26.513 124.545 25.9076 124.181 25.3867C123.816 24.8529 123.36 24.4036 122.813 24.0391C122.28 23.6615 121.655 23.3815 120.938 23.1992C120.235 23.0039 119.461 22.9062 118.614 22.9062C116.791 22.9062 115.235 23.3424 113.946 24.2148C112.67 25.0872 111.694 26.3437 111.017 27.9844C110.353 29.625 110.021 31.6042 110.021 33.9219C110.021 36.2656 110.34 38.2708 110.978 39.9375C111.616 41.6042 112.566 42.8802 113.829 43.7656C115.092 44.651 116.661 45.0937 118.536 45.0937C120.19 45.0937 121.563 44.8529 122.657 44.3711C123.764 43.8893 124.591 43.2057 125.138 42.3203C125.685 41.4349 125.958 40.3932 125.958 39.1953L127.833 39.3906H118.692V31.6562H136.427V37.2031C136.427 40.849 135.652 43.9674 134.103 46.5586C132.566 49.1367 130.444 51.1159 127.735 52.4961C125.04 53.8633 121.948 54.5469 118.458 54.5469C114.565 54.5469 111.147 53.7201 108.204 52.0664C105.261 50.4128 102.963 48.056 101.31 44.9961C99.6689 41.9362 98.8486 38.2969 98.8486 34.0781C98.8486 30.7708 99.3499 27.8411 100.353 25.2891C101.368 22.737 102.774 20.582 104.571 18.8242C106.368 17.0534 108.445 15.7187 110.802 14.8203C113.159 13.9089 115.685 13.4531 118.38 13.4531C120.75 13.4531 122.95 13.7917 124.981 14.4688C127.026 15.1328 128.829 16.0833 130.392 17.3203C131.967 18.5443 133.237 19.9961 134.2 21.6758C135.164 23.3555 135.75 25.1979 135.958 27.2031H124.981ZM141.49 54V14H152.35V29.625H166.725V14H177.584V54H166.725V38.375H152.35V54H141.49ZM181.646 22.75V14H216.412V22.75H204.381V54H193.678V22.75H181.646Z" fill="#151515"/>
</svg>
