<svg width="27" height="37" viewBox="0 0 27 37" fill="none" xmlns="http://www.w3.org/2000/svg">
<path d="M0 6.125C0 4.63316 0.592632 3.20242 1.64752 2.14752C2.70242 1.09263 4.13316 0.5 5.625 0.5H21.375C22.8668 0.5 24.2976 1.09263 25.3525 2.14752C26.4074 3.20242 27 4.63316 27 6.125V35.375C26.9998 35.5824 26.9423 35.7857 26.8338 35.9625C26.7253 36.1393 26.57 36.2826 26.3852 36.3767C26.2003 36.4708 25.993 36.5119 25.7863 36.4955C25.5795 36.4792 25.3813 36.406 25.2135 36.284L13.5 27.7655L1.7865 36.284C1.61873 36.406 1.4205 36.4792 1.21373 36.4955C1.00696 36.5119 0.799689 36.4708 0.614825 36.3767C0.42996 36.2826 0.2747 36.1393 0.166198 35.9625C0.0576966 35.7857 0.000178516 35.5824 0 35.375V6.125ZM5.625 2.75C4.72989 2.75 3.87145 3.10558 3.23851 3.73851C2.60558 4.37145 2.25 5.22989 2.25 6.125V33.1655L12.8385 25.466C13.0307 25.3262 13.2623 25.251 13.5 25.251C13.7377 25.251 13.9693 25.3262 14.1615 25.466L24.75 33.1655V6.125C24.75 5.22989 24.3944 4.37145 23.7615 3.73851C23.1286 3.10558 22.2701 2.75 21.375 2.75H5.625Z" fill="#F2F2F2"/>
</svg>
